<?xml version="1.0" encoding="utf-8" standalone="no"?>
<!DOCTYPE svg PUBLIC "-//W3C//DTD SVG 1.1//EN"
  "http://www.w3.org/Graphics/SVG/1.1/DTD/svg11.dtd">
<svg xmlns:xlink="http://www.w3.org/1999/xlink" width="402.48pt" height="402.48pt" viewBox="0 0 402.48 402.48" xmlns="http://www.w3.org/2000/svg" version="1.1">
 <metadata>
  <rdf:RDF xmlns:dc="http://purl.org/dc/elements/1.1/" xmlns:cc="http://creativecommons.org/ns#" xmlns:rdf="http://www.w3.org/1999/02/22-rdf-syntax-ns#">
   <cc:Work>
    <dc:type rdf:resource="http://purl.org/dc/dcmitype/StillImage"/>
    <dc:date>2026-02-03T21:41:55.116831</dc:date>
    <dc:format>image/svg+xml</dc:format>
    <dc:creator>
     <cc:Agent>
      <dc:title>Matplotlib v3.6.3, https://matplotlib.org/</dc:title>
     </cc:Agent>
    </dc:creator>
   </cc:Work>
  </rdf:RDF>
 </metadata>
 <defs>
  <style type="text/css">*{stroke-linejoin: round; stroke-linecap: butt}</style>
 </defs>
 <g id="figure_1">
  <g id="patch_1">
   <path d="M 0 402.48 
L 402.48 402.48 
L 402.48 -0 
L 0 -0 
z
" style="fill: #ffffff"/>
  </g>
  <g id="patch_2">
   <path d="M 7.2 395.28 
L 395.28 395.28 
L 395.28 7.2 
L 7.2 7.2 
z
" style="fill: #ffffff"/>
  </g>
  <g id="axes_1">
   <g id="line2d_1">
    <path d="M 129.635413 252.232572 
L 220.424883 278.245711 
" clip-path="url(#p60dd5cc504)" style="fill: none; stroke: #000000; stroke-width: 1.4; stroke-linecap: square"/>
   </g>
   <g id="line2d_2">
    <path d="M 193.454411 217.508766 
L 129.635413 252.232572 
" clip-path="url(#p60dd5cc504)" style="fill: none; stroke: #000000; stroke-width: 1.4; stroke-linecap: square"/>
   </g>
   <g id="line2d_3">
    <path d="M 128.090482 148.984558 
L 128.090482 148.984558 
" clip-path="url(#p60dd5cc504)" style="fill: none; stroke: #000000; stroke-width: 1.4; stroke-linecap: square"/>
   </g>
   <g id="line2d_4">
    <path d="M 128.090482 148.984558 
L 128.090482 148.984558 
" clip-path="url(#p60dd5cc504)" style="fill: none; stroke: #000000; stroke-width: 1.4; stroke-linecap: square"/>
   </g>
   <g id="line2d_5">
    <path d="M 128.090482 148.984558 
L 128.090482 148.984558 
" clip-path="url(#p60dd5cc504)" style="fill: none; stroke: #000000; stroke-width: 1.4; stroke-linecap: square"/>
   </g>
   <g id="line2d_6">
    <path d="M 128.090482 148.984558 
L 128.090482 148.984558 
" clip-path="url(#p60dd5cc504)" style="fill: none; stroke: #000000; stroke-width: 1.4; stroke-linecap: square"/>
   </g>
   <g id="line2d_7">
    <path d="M 129.635413 252.232572 
L 128.090482 148.984558 
" clip-path="url(#p60dd5cc504)" style="fill: none; stroke: #000000; stroke-width: 1.4; stroke-linecap: square"/>
   </g>
   <g id="line2d_8">
    <path d="M 220.424883 278.245711 
L 128.090482 148.984558 
" clip-path="url(#p60dd5cc504)" style="fill: none; stroke: #000000; stroke-width: 1.4; stroke-linecap: square"/>
   </g>
   <g id="line2d_9">
    <path d="M 193.454411 217.508766 
L 128.090482 148.984558 
" clip-path="url(#p60dd5cc504)" style="fill: none; stroke: #000000; stroke-width: 1.4; stroke-linecap: square"/>
   </g>
   <g id="line2d_10">
    <path d="M 220.424883 278.245711 
L 193.454411 217.508766 
" clip-path="url(#p60dd5cc504)" style="fill: none; stroke: #000000; stroke-width: 1.4; stroke-linecap: square"/>
   </g>
   <g id="Path3DCollection_1">
    <defs>
     <path id="mb23247b65c" d="M 0 3.354102 
C 0.889518 3.354102 1.742724 3.000693 2.371708 2.371708 
C 3.000693 1.742724 3.354102 0.889518 3.354102 0 
C 3.354102 -0.889518 3.000693 -1.742724 2.371708 -2.371708 
C 1.742724 -3.000693 0.889518 -3.354102 0 -3.354102 
C -0.889518 -3.354102 -1.742724 -3.000693 -2.371708 -2.371708 
C -3.000693 -1.742724 -3.354102 -0.889518 -3.354102 0 
C -3.354102 0.889518 -3.000693 1.742724 -2.371708 2.371708 
C -1.742724 3.000693 -0.889518 3.354102 0 3.354102 
z
" style="stroke: #0000ff"/>
    </defs>
    <g clip-path="url(#p60dd5cc504)">
     <use xlink:href="#mb23247b65c" x="193.454411" y="217.508766" style="fill: #0000ff; stroke: #0000ff"/>
    </g>
   </g>
   <g id="text_1">
    <!-- A -->
    <g style="fill: #0000ff" transform="translate(129.635413 240.282822) scale(0.09 -0.09)">
     <defs>
      <path id="DejaVuSans-41" d="M 2188 4044 
L 1331 1722 
L 3047 1722 
L 2188 4044 
z
M 1831 4666 
L 2547 4666 
L 4325 0 
L 3669 0 
L 3244 1197 
L 1141 1197 
L 716 0 
L 50 0 
L 1831 4666 
z
" transform="scale(0.015625)"/>
     </defs>
     <use xlink:href="#DejaVuSans-41"/>
    </g>
    <!-- (-1, -1, -1) -->
    <g style="fill: #0000ff" transform="translate(129.635413 250.360853) scale(0.09 -0.09)">
     <defs>
      <path id="DejaVuSans-28" d="M 1984 4856 
Q 1566 4138 1362 3434 
Q 1159 2731 1159 2009 
Q 1159 1288 1364 580 
Q 1569 -128 1984 -844 
L 1484 -844 
Q 1016 -109 783 600 
Q 550 1309 550 2009 
Q 550 2706 781 3412 
Q 1013 4119 1484 4856 
L 1984 4856 
z
" transform="scale(0.015625)"/>
      <path id="DejaVuSans-2d" d="M 313 2009 
L 1997 2009 
L 1997 1497 
L 313 1497 
L 313 2009 
z
" transform="scale(0.015625)"/>
      <path id="DejaVuSans-31" d="M 794 531 
L 1825 531 
L 1825 4091 
L 703 3866 
L 703 4441 
L 1819 4666 
L 2450 4666 
L 2450 531 
L 3481 531 
L 3481 0 
L 794 0 
L 794 531 
z
" transform="scale(0.015625)"/>
      <path id="DejaVuSans-2c" d="M 750 794 
L 1409 794 
L 1409 256 
L 897 -744 
L 494 -744 
L 750 256 
L 750 794 
z
" transform="scale(0.015625)"/>
      <path id="DejaVuSans-20" transform="scale(0.015625)"/>
      <path id="DejaVuSans-29" d="M 513 4856 
L 1013 4856 
Q 1481 4119 1714 3412 
Q 1947 2706 1947 2009 
Q 1947 1309 1714 600 
Q 1481 -109 1013 -844 
L 513 -844 
Q 928 -128 1133 580 
Q 1338 1288 1338 2009 
Q 1338 2731 1133 3434 
Q 928 4138 513 4856 
z
" transform="scale(0.015625)"/>
     </defs>
     <use xlink:href="#DejaVuSans-28"/>
     <use xlink:href="#DejaVuSans-2d" x="39.013672"/>
     <use xlink:href="#DejaVuSans-31" x="75.097656"/>
     <use xlink:href="#DejaVuSans-2c" x="138.720703"/>
     <use xlink:href="#DejaVuSans-20" x="170.507812"/>
     <use xlink:href="#DejaVuSans-2d" x="202.294922"/>
     <use xlink:href="#DejaVuSans-31" x="238.378906"/>
     <use xlink:href="#DejaVuSans-2c" x="302.001953"/>
     <use xlink:href="#DejaVuSans-20" x="333.789062"/>
     <use xlink:href="#DejaVuSans-2d" x="365.576172"/>
     <use xlink:href="#DejaVuSans-31" x="401.660156"/>
     <use xlink:href="#DejaVuSans-29" x="465.283203"/>
    </g>
   </g>
   <g id="text_2">
    <!-- B -->
    <g style="fill: #0000ff" transform="translate(220.424883 266.295961) scale(0.09 -0.09)">
     <defs>
      <path id="DejaVuSans-42" d="M 1259 2228 
L 1259 519 
L 2272 519 
Q 2781 519 3026 730 
Q 3272 941 3272 1375 
Q 3272 1813 3026 2020 
Q 2781 2228 2272 2228 
L 1259 2228 
z
M 1259 4147 
L 1259 2741 
L 2194 2741 
Q 2656 2741 2882 2914 
Q 3109 3088 3109 3444 
Q 3109 3797 2882 3972 
Q 2656 4147 2194 4147 
L 1259 4147 
z
M 628 4666 
L 2241 4666 
Q 2963 4666 3353 4366 
Q 3744 4066 3744 3513 
Q 3744 3084 3544 2831 
Q 3344 2578 2956 2516 
Q 3422 2416 3680 2098 
Q 3938 1781 3938 1306 
Q 3938 681 3513 340 
Q 3088 0 2303 0 
L 628 0 
L 628 4666 
z
" transform="scale(0.015625)"/>
     </defs>
     <use xlink:href="#DejaVuSans-42"/>
    </g>
    <!-- (+1, -1, -1) -->
    <g style="fill: #0000ff" transform="translate(220.424883 276.373992) scale(0.09 -0.09)">
     <defs>
      <path id="DejaVuSans-2b" d="M 2944 4013 
L 2944 2272 
L 4684 2272 
L 4684 1741 
L 2944 1741 
L 2944 0 
L 2419 0 
L 2419 1741 
L 678 1741 
L 678 2272 
L 2419 2272 
L 2419 4013 
L 2944 4013 
z
" transform="scale(0.015625)"/>
     </defs>
     <use xlink:href="#DejaVuSans-28"/>
     <use xlink:href="#DejaVuSans-2b" x="39.013672"/>
     <use xlink:href="#DejaVuSans-31" x="122.802734"/>
     <use xlink:href="#DejaVuSans-2c" x="186.425781"/>
     <use xlink:href="#DejaVuSans-20" x="218.212891"/>
     <use xlink:href="#DejaVuSans-2d" x="250"/>
     <use xlink:href="#DejaVuSans-31" x="286.083984"/>
     <use xlink:href="#DejaVuSans-2c" x="349.707031"/>
     <use xlink:href="#DejaVuSans-20" x="381.494141"/>
     <use xlink:href="#DejaVuSans-2d" x="413.28125"/>
     <use xlink:href="#DejaVuSans-31" x="449.365234"/>
     <use xlink:href="#DejaVuSans-29" x="512.988281"/>
    </g>
   </g>
   <g id="text_3">
    <!-- C -->
    <g style="fill: #0000ff" transform="translate(193.454411 205.559016) scale(0.09 -0.09)">
     <defs>
      <path id="DejaVuSans-43" d="M 4122 4306 
L 4122 3641 
Q 3803 3938 3442 4084 
Q 3081 4231 2675 4231 
Q 1875 4231 1450 3742 
Q 1025 3253 1025 2328 
Q 1025 1406 1450 917 
Q 1875 428 2675 428 
Q 3081 428 3442 575 
Q 3803 722 4122 1019 
L 4122 359 
Q 3791 134 3420 21 
Q 3050 -91 2638 -91 
Q 1578 -91 968 557 
Q 359 1206 359 2328 
Q 359 3453 968 4101 
Q 1578 4750 2638 4750 
Q 3056 4750 3426 4639 
Q 3797 4528 4122 4306 
z
" transform="scale(0.015625)"/>
     </defs>
     <use xlink:href="#DejaVuSans-43"/>
    </g>
    <!-- (-1, +1, -1) -->
    <g style="fill: #0000ff" transform="translate(193.454411 215.637047) scale(0.09 -0.09)">
     <use xlink:href="#DejaVuSans-28"/>
     <use xlink:href="#DejaVuSans-2d" x="39.013672"/>
     <use xlink:href="#DejaVuSans-31" x="75.097656"/>
     <use xlink:href="#DejaVuSans-2c" x="138.720703"/>
     <use xlink:href="#DejaVuSans-20" x="170.507812"/>
     <use xlink:href="#DejaVuSans-2b" x="202.294922"/>
     <use xlink:href="#DejaVuSans-31" x="286.083984"/>
     <use xlink:href="#DejaVuSans-2c" x="349.707031"/>
     <use xlink:href="#DejaVuSans-20" x="381.494141"/>
     <use xlink:href="#DejaVuSans-2d" x="413.28125"/>
     <use xlink:href="#DejaVuSans-31" x="449.365234"/>
     <use xlink:href="#DejaVuSans-29" x="512.988281"/>
    </g>
   </g>
   <g id="text_4">
    <!-- E -->
    <g style="fill: #0000ff" transform="translate(128.090482 137.034808) scale(0.09 -0.09)">
     <defs>
      <path id="DejaVuSans-45" d="M 628 4666 
L 3578 4666 
L 3578 4134 
L 1259 4134 
L 1259 2753 
L 3481 2753 
L 3481 2222 
L 1259 2222 
L 1259 531 
L 3634 531 
L 3634 0 
L 628 0 
L 628 4666 
z
" transform="scale(0.015625)"/>
     </defs>
     <use xlink:href="#DejaVuSans-45"/>
    </g>
    <!-- (-1, -1, +1) -->
    <g style="fill: #0000ff" transform="translate(128.090482 147.112839) scale(0.09 -0.09)">
     <use xlink:href="#DejaVuSans-28"/>
     <use xlink:href="#DejaVuSans-2d" x="39.013672"/>
     <use xlink:href="#DejaVuSans-31" x="75.097656"/>
     <use xlink:href="#DejaVuSans-2c" x="138.720703"/>
     <use xlink:href="#DejaVuSans-20" x="170.507812"/>
     <use xlink:href="#DejaVuSans-2d" x="202.294922"/>
     <use xlink:href="#DejaVuSans-31" x="238.378906"/>
     <use xlink:href="#DejaVuSans-2c" x="302.001953"/>
     <use xlink:href="#DejaVuSans-20" x="333.789062"/>
     <use xlink:href="#DejaVuSans-2b" x="365.576172"/>
     <use xlink:href="#DejaVuSans-31" x="449.365234"/>
     <use xlink:href="#DejaVuSans-29" x="512.988281"/>
    </g>
   </g>
   <g id="text_5">
    <!--   -->
    <g style="fill: #0000ff" transform="translate(128.090482 137.034808) scale(0.09 -0.09)">
     <use xlink:href="#DejaVuSans-20"/>
    </g>
    <!-- (-1, -1, +1) -->
    <g style="fill: #0000ff" transform="translate(128.090482 147.112839) scale(0.09 -0.09)">
     <use xlink:href="#DejaVuSans-28"/>
     <use xlink:href="#DejaVuSans-2d" x="39.013672"/>
     <use xlink:href="#DejaVuSans-31" x="75.097656"/>
     <use xlink:href="#DejaVuSans-2c" x="138.720703"/>
     <use xlink:href="#DejaVuSans-20" x="170.507812"/>
     <use xlink:href="#DejaVuSans-2d" x="202.294922"/>
     <use xlink:href="#DejaVuSans-31" x="238.378906"/>
     <use xlink:href="#DejaVuSans-2c" x="302.001953"/>
     <use xlink:href="#DejaVuSans-20" x="333.789062"/>
     <use xlink:href="#DejaVuSans-2b" x="365.576172"/>
     <use xlink:href="#DejaVuSans-31" x="449.365234"/>
     <use xlink:href="#DejaVuSans-29" x="512.988281"/>
    </g>
   </g>
   <g id="text_6">
    <!--   -->
    <g style="fill: #0000ff" transform="translate(128.090482 137.034808) scale(0.09 -0.09)">
     <use xlink:href="#DejaVuSans-20"/>
    </g>
    <!-- (-1, -1, +1) -->
    <g style="fill: #0000ff" transform="translate(128.090482 147.112839) scale(0.09 -0.09)">
     <use xlink:href="#DejaVuSans-28"/>
     <use xlink:href="#DejaVuSans-2d" x="39.013672"/>
     <use xlink:href="#DejaVuSans-31" x="75.097656"/>
     <use xlink:href="#DejaVuSans-2c" x="138.720703"/>
     <use xlink:href="#DejaVuSans-20" x="170.507812"/>
     <use xlink:href="#DejaVuSans-2d" x="202.294922"/>
     <use xlink:href="#DejaVuSans-31" x="238.378906"/>
     <use xlink:href="#DejaVuSans-2c" x="302.001953"/>
     <use xlink:href="#DejaVuSans-20" x="333.789062"/>
     <use xlink:href="#DejaVuSans-2b" x="365.576172"/>
     <use xlink:href="#DejaVuSans-31" x="449.365234"/>
     <use xlink:href="#DejaVuSans-29" x="512.988281"/>
    </g>
   </g>
   <g id="text_7">
    <!--   -->
    <g style="fill: #0000ff" transform="translate(128.090482 137.034808) scale(0.09 -0.09)">
     <use xlink:href="#DejaVuSans-20"/>
    </g>
    <!-- (-1, -1, +1) -->
    <g style="fill: #0000ff" transform="translate(128.090482 147.112839) scale(0.09 -0.09)">
     <use xlink:href="#DejaVuSans-28"/>
     <use xlink:href="#DejaVuSans-2d" x="39.013672"/>
     <use xlink:href="#DejaVuSans-31" x="75.097656"/>
     <use xlink:href="#DejaVuSans-2c" x="138.720703"/>
     <use xlink:href="#DejaVuSans-20" x="170.507812"/>
     <use xlink:href="#DejaVuSans-2d" x="202.294922"/>
     <use xlink:href="#DejaVuSans-31" x="238.378906"/>
     <use xlink:href="#DejaVuSans-2c" x="302.001953"/>
     <use xlink:href="#DejaVuSans-20" x="333.789062"/>
     <use xlink:href="#DejaVuSans-2b" x="365.576172"/>
     <use xlink:href="#DejaVuSans-31" x="449.365234"/>
     <use xlink:href="#DejaVuSans-29" x="512.988281"/>
    </g>
   </g>
   <g id="text_8">
    <!-- $\eta_1$ -->
    <g style="fill: #ff0000" transform="translate(280.753172 215.47657) scale(0.12 -0.12)">
     <defs>
      <path id="DejaVuSans-Oblique-3b7" d="M 3703 2113 
L 3034 -1331 
L 2459 -1331 
L 3125 2094 
Q 3222 2591 3075 2838 
Q 2931 3084 2544 3084 
Q 2078 3084 1750 2788 
Q 1425 2491 1325 1978 
L 941 0 
L 363 0 
L 1044 3500 
L 1622 3500 
L 1516 2956 
Q 1781 3272 2094 3428 
Q 2403 3584 2769 3584 
Q 3372 3584 3609 3213 
Q 3844 2838 3703 2113 
z
" transform="scale(0.015625)"/>
     </defs>
     <use xlink:href="#DejaVuSans-Oblique-3b7"/>
     <use xlink:href="#DejaVuSans-31" transform="translate(63.378906 -16.40625) scale(0.7)"/>
    </g>
   </g>
   <g id="text_9">
    <!-- $\eta_2$ -->
    <g style="fill: #ff0000" transform="translate(255.738949 169.644764) scale(0.12 -0.12)">
     <defs>
      <path id="DejaVuSans-32" d="M 1228 531 
L 3431 531 
L 3431 0 
L 469 0 
L 469 531 
Q 828 903 1448 1529 
Q 2069 2156 2228 2338 
Q 2531 2678 2651 2914 
Q 2772 3150 2772 3378 
Q 2772 3750 2511 3984 
Q 2250 4219 1831 4219 
Q 1534 4219 1204 4116 
Q 875 4013 500 3803 
L 500 4441 
Q 881 4594 1212 4672 
Q 1544 4750 1819 4750 
Q 2544 4750 2975 4387 
Q 3406 4025 3406 3419 
Q 3406 3131 3298 2873 
Q 3191 2616 2906 2266 
Q 2828 2175 2409 1742 
Q 1991 1309 1228 531 
z
" transform="scale(0.015625)"/>
     </defs>
     <use xlink:href="#DejaVuSans-Oblique-3b7"/>
     <use xlink:href="#DejaVuSans-32" transform="translate(63.378906 -16.40625) scale(0.7)"/>
    </g>
   </g>
   <g id="text_10">
    <!-- $\eta_3$ -->
    <g style="fill: #ff0000" transform="translate(206.484324 112.499382) scale(0.12 -0.12)">
     <defs>
      <path id="DejaVuSans-33" d="M 2597 2516 
Q 3050 2419 3304 2112 
Q 3559 1806 3559 1356 
Q 3559 666 3084 287 
Q 2609 -91 1734 -91 
Q 1441 -91 1130 -33 
Q 819 25 488 141 
L 488 750 
Q 750 597 1062 519 
Q 1375 441 1716 441 
Q 2309 441 2620 675 
Q 2931 909 2931 1356 
Q 2931 1769 2642 2001 
Q 2353 2234 1838 2234 
L 1294 2234 
L 1294 2753 
L 1863 2753 
Q 2328 2753 2575 2939 
Q 2822 3125 2822 3475 
Q 2822 3834 2567 4026 
Q 2313 4219 1838 4219 
Q 1578 4219 1281 4162 
Q 984 4106 628 3988 
L 628 4550 
Q 988 4650 1302 4700 
Q 1616 4750 1894 4750 
Q 2613 4750 3031 4423 
Q 3450 4097 3450 3541 
Q 3450 3153 3228 2886 
Q 3006 2619 2597 2516 
z
" transform="scale(0.015625)"/>
     </defs>
     <use xlink:href="#DejaVuSans-Oblique-3b7"/>
     <use xlink:href="#DejaVuSans-33" transform="translate(63.378906 -16.40625) scale(0.7)"/>
    </g>
   </g>
   <g id="Path3DCollection_2">
    <g clip-path="url(#p60dd5cc504)">
     <use xlink:href="#mb23247b65c" x="129.635413" y="252.232572" style="fill: #0000ff; stroke: #0000ff"/>
    </g>
   </g>
   <g id="Line3DCollection_1">
    <path d="M 252.750439 171.243598 
L 206.484324 195.995676 
" clip-path="url(#p60dd5cc504)" style="fill: none; stroke: #ff0000; stroke-width: 1.5"/>
    <path d="M 252.750439 171.243598 
L 249.259043 174.663056 
" clip-path="url(#p60dd5cc504)" style="fill: none; stroke: #ff0000; stroke-width: 1.5"/>
    <path d="M 252.750439 171.243598 
L 249.284624 171.545275 
" clip-path="url(#p60dd5cc504)" style="fill: none; stroke: #ff0000; stroke-width: 1.5"/>
   </g>
   <g id="Line3DCollection_2">
    <path d="M 206.484324 117.796498 
L 206.484324 195.995676 
" clip-path="url(#p60dd5cc504)" style="fill: none; stroke: #ff0000; stroke-width: 1.5"/>
    <path d="M 206.484324 117.796498 
L 205.056121 123.580384 
" clip-path="url(#p60dd5cc504)" style="fill: none; stroke: #ff0000; stroke-width: 1.5"/>
    <path d="M 206.484324 117.796498 
L 207.913791 124.266215 
" clip-path="url(#p60dd5cc504)" style="fill: none; stroke: #ff0000; stroke-width: 1.5"/>
   </g>
   <g id="Path3DCollection_3">
    <g clip-path="url(#p60dd5cc504)">
     <use xlink:href="#mb23247b65c" x="128.090482" y="148.984558" style="fill: #0000ff; stroke: #0000ff"/>
    </g>
   </g>
   <g id="Path3DCollection_4">
    <g clip-path="url(#p60dd5cc504)">
     <use xlink:href="#mb23247b65c" x="128.090482" y="148.984558" style="fill: #0000ff; stroke: #0000ff"/>
    </g>
   </g>
   <g id="Path3DCollection_5">
    <g clip-path="url(#p60dd5cc504)">
     <use xlink:href="#mb23247b65c" x="128.090482" y="148.984558" style="fill: #0000ff; stroke: #0000ff"/>
    </g>
   </g>
   <g id="Path3DCollection_6">
    <g clip-path="url(#p60dd5cc504)">
     <use xlink:href="#mb23247b65c" x="128.090482" y="148.984558" style="fill: #0000ff; stroke: #0000ff"/>
    </g>
   </g>
   <g id="Line3DCollection_3">
    <path d="M 276.011488 214.232815 
L 206.484324 195.995676 
" clip-path="url(#p60dd5cc504)" style="fill: none; stroke: #ff0000; stroke-width: 1.5"/>
    <path d="M 276.011488 214.232815 
L 270.512283 214.4166 
" clip-path="url(#p60dd5cc504)" style="fill: none; stroke: #ff0000; stroke-width: 1.5"/>
    <path d="M 276.011488 214.232815 
L 270.552418 211.173629 
" clip-path="url(#p60dd5cc504)" style="fill: none; stroke: #ff0000; stroke-width: 1.5"/>
   </g>
   <g id="Path3DCollection_7">
    <g clip-path="url(#p60dd5cc504)">
     <use xlink:href="#mb23247b65c" x="220.424883" y="278.245711" style="fill: #0000ff; stroke: #0000ff"/>
    </g>
   </g>
  </g>
 </g>
 <defs>
  <clipPath id="p60dd5cc504">
   <rect x="7.2" y="7.2" width="388.08" height="388.08"/>
  </clipPath>
 </defs>
</svg>
